<?xml version="1.0" encoding="UTF-8" standalone="no"?><svg xmlns="http://www.w3.org/2000/svg" xmlns:xlink="http://www.w3.org/1999/xlink" contentScriptType="text/ecmascript" fill="#bbcbcd" width="409.7" zoomAndPan="magnify" contentStyleType="text/css" viewBox="0.0 -0.0 409.7 312.7" height="312.7" data-name="Layer 1" preserveAspectRatio="xMidYMid meet" version="1"><g id="change1_1"><path fill="inherit" d="M409.67,2V107.85c0,113-91.89,204.83-204.84,204.83S0,220.8,0,107.85V2A2,2,0,0,1,4,2V107.85C4,218.59,94.09,308.68,204.83,308.68s200.84-90.09,200.84-200.83V2a2,2,0,0,1,4,0ZM204.83,281c95.8,0,173.74-77.94,173.74-173.74V2.09a2,2,0,1,0-4,0V107.28c0,93.6-76.14,169.74-169.74,169.74S35.1,200.88,35.1,107.28V2.09a2,2,0,0,0-4,0V107.28C31.1,203.08,109,281,204.83,281Zm0-31.66c78.66,0,142.65-64,142.65-142.64V2.19a2,2,0,1,0-4,0V106.72c0,76.45-62.2,138.64-138.65,138.64S66.19,183.17,66.19,106.72V2.19a2,2,0,1,0-4,0V106.72C62.19,185.37,126.18,249.36,204.83,249.36Zm0-31.66A111.67,111.67,0,0,0,316.38,106.15V2.28a2,2,0,1,0-4,0V106.15a107.55,107.55,0,1,1-215.09,0V2.28a2,2,0,0,0-4,0V106.15A111.67,111.67,0,0,0,204.83,217.7Zm0-31.67a80.54,80.54,0,0,0,80.45-80.45V2.37a2,2,0,0,0-4,0V105.58a76.45,76.45,0,1,1-152.9,0V2.37a2,2,0,0,0-4,0V105.58A80.54,80.54,0,0,0,204.83,186Zm0-31.66A49.41,49.41,0,0,0,254.19,105V2.46a2,2,0,0,0-4,0V105a45.36,45.36,0,0,1-90.71,0V2.46a2,2,0,0,0-4,0V105A49.41,49.41,0,0,0,204.83,154.37Z"/></g></svg>