<?xml version="1.0" encoding="UTF-8" standalone="no"?><svg xmlns="http://www.w3.org/2000/svg" xmlns:xlink="http://www.w3.org/1999/xlink" contentScriptType="text/ecmascript" fill="#000000" width="471" zoomAndPan="magnify" contentStyleType="text/css" viewBox="20.5 3.5 471.0 505.1" height="505" data-name="Layer 1" preserveAspectRatio="xMidYMid meet" version="1"><g data-name="Artboard 22"><g id="change1_1"><path fill="#ffffff" d="M443.724,220.354c-31.521,0-64.2-.992-95.555,0l-51.818-46.318a24.241,24.241,0,0,0-34.016,1.3,23.628,23.628,0,0,0-6.321,16.02,23.628,23.628,0,0,0-6.321-16.02,24.274,24.274,0,0,0-34.044-1.3L163.86,220.354c-31.351-.992-64.063,0-95.556,0-26.306,0-47.82,24.718-47.82,54.964V378.442A23.078,23.078,0,0,0,56.37,397.665v82.173a28.659,28.659,0,0,0,57.317,0,28.644,28.644,0,1,0,57.288,0V283.709l8.816-7.994,68.6-66.359a24.854,24.854,0,0,0,7.625-17.926,24.858,24.858,0,0,0,7.625,17.926l68.6,66.359,8.816,7.994V479.838a28.644,28.644,0,1,0,57.288,0,28.644,28.644,0,1,0,57.288,0V397.652a22.921,22.921,0,0,0,12.784,3.893,23.161,23.161,0,0,0,23.1-23.1V275.318C491.516,245.072,470,220.354,443.724,220.354Z"/></g><g id="change1_2"><circle fill="#ffffff" r="51.137" cx="395.252" transform="translate(-29.723 233.01) rotate(-31.718)" cy="168.82"/></g><g id="change1_3"><circle fill="#ffffff" r="51.137" cx="116.776" transform="translate(-85.171 132.02) rotate(-45)" cy="168.82"/></g><g id="change1_4"><path fill="#ffffff" d="M222.027,103.17a6.928,6.928,0,0,0-3.033,9.354l14.315,27.893a6.972,6.972,0,1,0,12.415-6.349L231.409,106.2A6.967,6.967,0,0,0,222.027,103.17Z"/></g><g id="change1_5"><path fill="#ffffff" d="M280.619,106.2,266.3,134.068a6.96,6.96,0,1,0,12.387,6.349l14.344-27.893a6.966,6.966,0,0,0-12.416-6.321Z"/></g><g id="change1_6"><path fill="#ffffff" d="M406.052,54.669a6.945,6.945,0,0,0-9.1,3.8L392.162,70.09c-9.383-17.348-25-32.4-44.9-43.767C322.317,12.036,290.54,3.5,256.014,3.5c-34.554,0-66.3,8.532-91.275,22.819-19.9,11.367-35.519,26.419-44.873,43.767l-4.79-11.622a6.972,6.972,0,1,0-12.9,5.3l11.2,27.242a6.989,6.989,0,0,0,9.1,3.8l27.241-11.225a6.972,6.972,0,0,0-5.3-12.9l-11.565,4.762c8.164-14.456,21.685-27.184,38.834-36.992,22.933-13.1,52.271-20.977,84.331-20.977s61.4,7.881,84.3,20.977c17.177,9.808,30.67,22.536,38.863,36.992l-11.566-4.762a6.972,6.972,0,0,0-5.3,12.9l27.213,11.225a7.01,7.01,0,0,0,9.127-3.8l11.2-27.242A6.955,6.955,0,0,0,406.052,54.669Z"/></g><g data-name="Artboard 22"><g id="change2_1"><path fill="#9ba7af" d="M455.63,367.274H398.342V479.838A28.744,28.744,0,0,0,427,508.5h0a28.72,28.72,0,0,0,28.63-28.658Z" fill-rule="evenodd"/></g><g id="change3_1"><path fill="#30a5f8" d="M341.054,283.709l-8.816-7.994-68.6-66.359c-9.524-9.213-10.318-24.293-1.3-34.016a24.241,24.241,0,0,1,34.016-1.3l51.818,46.318c31.351-.992,64.034,0,95.555,0,26.278,0,47.793,24.718,47.793,54.964V378.443a23.161,23.161,0,0,1-23.1,23.1h0a23.179,23.179,0,0,1-23.1-23.1V367.274H341.054V283.709Z" fill-rule="evenodd"/></g><g id="change4_1"><path fill="#2b95df" d="M452.313,367.274a7,7,0,1,1-14,0v-82.6a7,7,0,0,1,14,0Z"/></g><g id="change5_1"><path fill="#ffbe82" d="M395.252,219.958a51.138,51.138,0,1,0-51.137-51.138,51.131,51.131,0,0,0,51.137,51.138Z" fill-rule="evenodd"/></g><g id="change2_2"><path fill="#9ba7af" d="M341.054,367.274h57.288V479.838a28.739,28.739,0,0,1-28.63,28.658h0a28.744,28.744,0,0,1-28.658-28.658Z" fill-rule="evenodd"/></g><g id="change2_3"><path fill="#9ba7af" d="M56.37,367.274h57.317V479.838A28.745,28.745,0,0,1,85.028,508.5h0A28.745,28.745,0,0,1,56.37,479.838Z" fill-rule="evenodd"/></g><g id="change6_1"><path fill="#fd4755" d="M170.975,283.709l8.816-7.994,68.6-66.359c9.524-9.213,10.318-24.293,1.3-34.016a24.274,24.274,0,0,0-34.044-1.3L163.86,220.354c-31.351-.992-64.063,0-95.556,0-26.306,0-47.821,24.718-47.821,54.964V378.443a23.18,23.18,0,0,0,23.1,23.1h0a23.185,23.185,0,0,0,23.13-23.1V367.274H170.975V283.709Z" fill-rule="evenodd"/></g><g id="change7_1"><path fill="#e4404d" d="M73.718,367.274a7,7,0,1,1-14,0v-82.6a7,7,0,0,1,14,0Z"/></g><g id="change5_2"><path fill="#ffbe82" d="M116.776,219.958a51.138,51.138,0,1,1,51.137-51.138,51.113,51.113,0,0,1-51.137,51.138Z" fill-rule="evenodd"/></g><g id="change2_4"><path fill="#9ba7af" d="M170.975,367.274H113.687V479.838a28.72,28.72,0,0,0,28.63,28.658h0a28.745,28.745,0,0,0,28.658-28.658Z" fill-rule="evenodd"/></g><g id="change4_2"><path fill="#2b95df" d="M245.724,134.068a6.972,6.972,0,1,1-12.415,6.349l-14.315-27.893a6.966,6.966,0,0,1,12.415-6.321Zm32.967,6.349a6.96,6.96,0,1,1-12.387-6.349L280.619,106.2a6.966,6.966,0,0,1,12.416,6.321Z"/></g><g id="change8_1"><path fill="#8bc34a" d="M396.953,58.468a6.972,6.972,0,1,1,12.9,5.3l-11.2,27.241a7.011,7.011,0,0,1-9.128,3.8L362.313,83.583a6.972,6.972,0,0,1,5.3-12.9l11.566,4.762c-8.193-14.457-21.686-27.184-38.864-36.992-22.9-13.1-52.242-20.976-84.3-20.976s-61.4,7.88-84.331,20.976c-17.149,9.808-30.67,22.535-38.834,36.992l11.565-4.762a6.972,6.972,0,0,1,5.3,12.9L122.474,94.808a6.988,6.988,0,0,1-9.1-3.8l-11.2-27.241a6.972,6.972,0,1,1,12.9-5.3l4.79,11.622c9.354-17.348,24.973-32.4,44.873-43.767C189.712,12.036,221.46,3.5,256.014,3.5c34.526,0,66.3,8.532,91.247,22.819,19.9,11.367,35.518,26.419,44.9,43.767Z"/></g><g id="change9_1"><path fill="#8c969e" d="M120.66,462.121a6.992,6.992,0,0,1-13.975,0V367.274H120.66Z"/></g><g id="change9_2"><path fill="#8c969e" d="M405.343,462.121a7.006,7.006,0,0,1-14,0V367.274h14Z"/></g></g></g></svg>